<?xml version="1.0" encoding="UTF-8" standalone="no"?>
<svg
   xmlns:dc="http://purl.org/dc/elements/1.1/"
   xmlns:cc="http://creativecommons.org/ns#"
   xmlns:rdf="http://www.w3.org/1999/02/22-rdf-syntax-ns#"
   xmlns:svg="http://www.w3.org/2000/svg"
   xmlns="http://www.w3.org/2000/svg"
   xmlns:sodipodi="http://sodipodi.sourceforge.net/DTD/sodipodi-0.dtd"
   xmlns:inkscape="http://www.inkscape.org/namespaces/inkscape"
   width="1228.5714"
   height="394.28571"
   viewBox="0 0 325.05951 104.32143"
   version="1.1"
   id="svg8"
   inkscape:version="1.0.1 (3bc2e813f5, 2020-09-07)"
   sodipodi:docname="error.svg">
  <defs
     id="defs2" />
  <sodipodi:namedview
     inkscape:window-maximized="1"
     inkscape:window-y="49"
     inkscape:window-x="-11"
     inkscape:window-height="956"
     inkscape:window-width="1680"
     units="px"
     id="base"
     pagecolor="#ffffff"
     bordercolor="#666666"
     borderopacity="1.0"
     inkscape:pageopacity="0.0"
     inkscape:pageshadow="2"
     inkscape:zoom="0.35"
     inkscape:cx="400"
     inkscape:cy="560"
     inkscape:document-units="px"
     inkscape:current-layer="layer1"
     inkscape:document-rotation="0"
     showgrid="false"
     inkscape:snap-bbox="true"
     inkscape:bbox-paths="true"
     inkscape:bbox-nodes="true"
     inkscape:snap-bbox-edge-midpoints="true"
     inkscape:snap-bbox-midpoints="true"
     inkscape:object-paths="true"
     inkscape:snap-intersection-paths="true"
     inkscape:snap-smooth-nodes="true"
     inkscape:snap-midpoints="true"
     inkscape:snap-object-midpoints="true"
     inkscape:snap-center="true"
     inkscape:snap-text-baseline="true"
     inkscape:snap-page="true"
     inkscape:snap-to-guides="true"
     inkscape:snap-global="false" />
  <metadata
     id="metadata5">
    <rdf:RDF>
      <cc:Work
         rdf:about="">
        <dc:format>image/svg+xml</dc:format>
        <dc:type
           rdf:resource="http://purl.org/dc/dcmitype/StillImage" />
        <dc:title />
      </cc:Work>
    </rdf:RDF>
  </metadata>
  <g
     inkscape:label="Capa 1"
     inkscape:groupmode="layer"
     id="layer1"
     transform="translate(393.47324,-113.01488)">
    <rect
       style="fill:#ffffff;stroke:none;stroke-width:8.0436;stroke-linecap:round;stroke-miterlimit:4;stroke-dasharray:none;paint-order:markers fill stroke;stop-color:#000000"
       id="rect21"
       width="325.05951"
       height="104.32143"
       x="-393.47324"
       y="113.01488"
       ry="0" />
    <text
       xml:space="preserve"
       style="font-style:normal;font-variant:normal;font-weight:bold;font-stretch:normal;font-size:50.2238px;line-height:1.25;font-family:Consolas;-inkscape-font-specification:'Consolas, Bold';font-variant-ligatures:normal;font-variant-caps:normal;font-variant-numeric:normal;font-variant-east-asian:normal;text-align:center;letter-spacing:0px;word-spacing:0px;text-anchor:middle;fill:#ff0000;stroke-width:1.2556"
       x="-291.75726"
       y="181.18933"
       id="text878"><tspan
         sodipodi:role="line"
         id="tspan876"
         x="-291.75726"
         y="181.18933"
         style="font-style:normal;font-variant:normal;font-weight:bold;font-stretch:normal;font-size:50.2238px;font-family:Consolas;-inkscape-font-specification:'Consolas, Bold';font-variant-ligatures:normal;font-variant-caps:normal;font-variant-numeric:normal;font-variant-east-asian:normal;fill:#ff0000;stroke-width:1.2556">ERROR</tspan></text>
    <path
       style="fill:#ff0000;stroke-width:0.352778"
       d="m -136.46645,191.84547 c 0.082,-0.14552 2.88792,-5.14615 6.23532,-11.1125 3.34739,-5.96635 6.20813,-10.84792 6.35718,-10.84792 0.14906,0 3.00979,4.88157 6.35719,10.84792 3.3474,5.96635 6.15329,10.96698 6.23531,11.1125 0.082,0.14552 -5.5846,0.26458 -12.5925,0.26458 -7.0079,0 -12.67453,-0.11906 -12.5925,-0.26458 z m 13.71125,-2.43593 c 1.06989,-0.96823 0.36022,-2.94393 -1.05745,-2.94393 -0.71499,0 -1.82519,1.03563 -1.82519,1.70259 0,1.48565 1.7703,2.24799 2.88264,1.24134 z m -0.262,-4.20385 c 0.80878,-0.80878 0.80878,-8.66583 0,-9.4746 -1.65253,-1.65254 -2.26786,-0.40274 -2.26786,4.60626 0,4.25897 0.30283,5.4227 1.41111,5.4227 0.16631,0 0.55185,-0.24946 0.85675,-0.55436 z m -45.14639,-2.42822 -0.86591,-0.8659 v -16.06743 -16.06742 h 24.69444 24.69444 l -0.001,12.61181 c -10e-4,14.26339 0.29107,13.393 -2.66871,7.93986 -1.73973,-3.20533 -1.03401,-3.82545 -6.12585,5.38286 l -4.38609,7.93214 h -17.23751 -17.2375 z m 25.97545,-12.62783 c 2.88759,-1.79476 5.25017,-3.34257 5.25017,-3.43959 0,-0.20203 -10.38971,-6.70277 -10.71261,-6.70277 -0.11674,0 -0.21226,3.01625 -0.21226,6.70277 0,3.68653 0.0955,6.70278 0.21226,6.70278 0.11674,0 2.57484,-1.46844 5.46244,-3.26319 z m -26.84136,-26.56256 c 0,-5.05161 0.0691,-5.09925 7.40126,-5.09925 h 5.66945 l -3.62494,4.2305 -3.62494,4.23049 -2.91042,0.003 -2.91041,0.003 z m 9.92277,2.75355 c 0.2663,-0.33762 1.89293,-2.24262 3.61474,-4.23333 l 3.13058,-3.61947 h 5.25686 5.25687 l -3.62494,4.2305 -3.62494,4.23049 -5.24667,0.003 c -4.93597,0.003 -5.21799,-0.0335 -4.7625,-0.61103 z m 14.11112,0 c 0.26629,-0.33762 1.89292,-2.24262 3.61474,-4.23333 l 3.13057,-3.61947 h 5.25687 5.25686 l -3.62494,4.2305 -3.62494,4.23049 -5.24666,0.003 c -4.93597,0.003 -5.218,-0.0335 -4.7625,-0.61103 z m 14.11111,0 c 7.74534,-9.82016 11.24388,-10.67694 11.24388,-2.75355 v 3.36742 h -5.86402 c -5.52239,0 -5.83582,-0.0358 -5.37986,-0.61387 z"
       id="path902" />
  </g>
</svg>
