<?xml version="1.0" encoding="UTF-8" standalone="no"?>
<svg
   xmlns:dc="http://purl.org/dc/elements/1.1/"
   xmlns:cc="http://creativecommons.org/ns#"
   xmlns:rdf="http://www.w3.org/1999/02/22-rdf-syntax-ns#"
   xmlns:svg="http://www.w3.org/2000/svg"
   xmlns="http://www.w3.org/2000/svg"
   xmlns:sodipodi="http://sodipodi.sourceforge.net/DTD/sodipodi-0.dtd"
   xmlns:inkscape="http://www.inkscape.org/namespaces/inkscape"
   width="1228.5714"
   height="394.28571"
   viewBox="0 0 325.05951 104.32143"
   version="1.1"
   id="svg8"
   inkscape:version="1.0.1 (3bc2e813f5, 2020-09-07)"
   sodipodi:docname="loading.svg">
  <defs
     id="defs2" />
  <sodipodi:namedview
     inkscape:window-maximized="1"
     inkscape:window-y="49"
     inkscape:window-x="-11"
     inkscape:window-height="956"
     inkscape:window-width="1680"
     units="px"
     id="base"
     pagecolor="#ffffff"
     bordercolor="#666666"
     borderopacity="1.0"
     inkscape:pageopacity="0.0"
     inkscape:pageshadow="2"
     inkscape:zoom="0.35"
     inkscape:cx="400"
     inkscape:cy="560"
     inkscape:document-units="px"
     inkscape:current-layer="layer1"
     inkscape:document-rotation="0"
     showgrid="false"
     inkscape:snap-bbox="true"
     inkscape:bbox-paths="true"
     inkscape:bbox-nodes="true"
     inkscape:snap-bbox-edge-midpoints="true"
     inkscape:snap-bbox-midpoints="true"
     inkscape:object-paths="true"
     inkscape:snap-intersection-paths="true"
     inkscape:snap-smooth-nodes="true"
     inkscape:snap-midpoints="true"
     inkscape:snap-object-midpoints="true"
     inkscape:snap-center="true"
     inkscape:snap-text-baseline="true"
     inkscape:snap-page="true"
     inkscape:snap-to-guides="true"
     inkscape:snap-global="false" />
  <metadata
     id="metadata5">
    <rdf:RDF>
      <cc:Work
         rdf:about="">
        <dc:format>image/svg+xml</dc:format>
        <dc:type
           rdf:resource="http://purl.org/dc/dcmitype/StillImage" />
        <dc:title />
      </cc:Work>
    </rdf:RDF>
  </metadata>
  <g
     inkscape:label="Capa 1"
     inkscape:groupmode="layer"
     id="layer1"
     transform="translate(393.47324,-113.01488)">
    <rect
       style="fill:#ffffff;stroke:none;stroke-width:8.0436;stroke-linecap:round;stroke-miterlimit:4;stroke-dasharray:none;paint-order:markers fill stroke;stop-color:#000000"
       id="rect21"
       width="325.05951"
       height="104.32143"
       x="-393.47324"
       y="113.01488"
       ry="0" />
    <g
       id="g22"
       transform="translate(15.181375)">
      <text
         xml:space="preserve"
         style="font-style:normal;font-variant:normal;font-weight:bold;font-stretch:normal;font-size:50.2238px;line-height:1.25;font-family:Consolas;-inkscape-font-specification:'Consolas, Bold';font-variant-ligatures:normal;font-variant-caps:normal;font-variant-numeric:normal;font-variant-east-asian:normal;text-align:center;letter-spacing:0px;word-spacing:0px;text-anchor:middle;fill:#00ffff;stroke-width:1.2556"
         x="-291.75726"
         y="177.85416"
         id="text878"><tspan
           sodipodi:role="line"
           id="tspan876"
           x="-291.75726"
           y="177.85416"
           style="font-style:normal;font-variant:normal;font-weight:bold;font-stretch:normal;font-size:50.2238px;font-family:Consolas;-inkscape-font-specification:'Consolas, Bold';font-variant-ligatures:normal;font-variant-caps:normal;font-variant-numeric:normal;font-variant-east-asian:normal;fill:#00ffff;stroke-width:1.2556">loading</tspan></text>
      <path
         style="fill:#00ffff;stroke-width:0.27008"
         d="m -170.06034,192.11448 -0.6752,-0.33684 -0.0688,-26.40758 c -0.0466,-17.89606 0.0217,-26.57675 0.21206,-26.93246 0.2757,-0.51515 0.85913,-0.5249 31.41158,-0.5249 23.85263,0 31.20643,0.0758 31.45476,0.3241 0.24767,0.24767 0.32409,6.57659 0.32409,26.83984 0,24.33604 -0.0367,26.54622 -0.44665,26.88642 -0.63198,0.52445 -61.16869,0.6718 -62.21179,0.15142 z m 59.8921,-20.1546 c 0.0549,-13.96093 -0.002,-17.71769 -0.27008,-17.88559 -0.39339,-0.24622 -56.10584,-0.30627 -57.08099,-0.0615 l -0.65047,0.16326 v 17.61592 c 0,9.68875 0.0816,17.69748 0.18127,17.79719 0.0997,0.0997 13.13441,0.15033 28.96603,0.11253 l 28.78475,-0.0687 z m -39.43339,10.58313 c -0.25985,-0.0587 -0.5368,-0.37129 -0.61543,-0.69464 -0.0786,-0.32335 -0.1091,-5.01075 -0.0677,-10.41646 0.0688,-8.98587 0.11545,-9.8539 0.54388,-10.12406 0.55353,-0.34905 0.49962,-0.37531 7.36007,3.58641 2.67579,1.5452 5.24387,3.02285 5.70686,3.28366 0.46298,0.26083 1.66038,0.97153 2.66087,1.57936 1.0005,0.60781 1.92589,1.10512 2.05642,1.10512 0.29997,0 0.62162,1.23383 0.41064,1.5752 -0.0868,0.14052 -1.52633,1.04012 -3.19885,1.9991 -1.67253,0.95898 -4.25632,2.44964 -5.74175,3.31259 -1.48544,0.86294 -3.24771,1.87143 -3.91615,2.24109 -0.66846,0.36965 -1.5192,0.88193 -1.89056,1.13838 -1.20261,0.83051 -2.82403,1.52364 -3.30829,1.41425 z m 2.76813,-3.57822 c 0.37136,-0.29048 0.76307,-0.53085 0.87048,-0.53415 0.10741,-0.003 1.0797,-0.53782 2.16064,-1.18781 1.08094,-0.64999 3.51493,-2.07302 5.40886,-3.16231 1.89393,-1.08929 3.44076,-2.10706 3.43741,-2.26172 -0.003,-0.15466 -1.79601,-1.28821 -3.98367,-2.51901 -2.18766,-1.2308 -5.0953,-2.88813 -6.46142,-3.68297 -1.36612,-0.79483 -2.55109,-1.37791 -2.63328,-1.29573 -0.0822,0.0822 -0.14942,3.53217 -0.14942,7.66665 0,8.06933 -0.006,8.03808 1.3504,6.97705 z m 16.98228,3.46063 c -0.1597,-0.41297 -0.16497,-19.76251 -0.006,-20.36218 0.23442,-0.88178 1.10416,-1.18681 1.61814,-0.56751 0.23346,0.28131 0.29855,3.08443 0.24644,10.61366 l -0.0708,10.23139 -0.87776,0.0846 c -0.48277,0.0465 -0.89249,0.0465 -0.91049,0 z m -29.29588,-31.23839 c 0.0781,-0.12631 -0.40091,-1.11012 -1.06439,-2.18623 -0.66347,-1.07612 -1.2063,-1.9948 -1.2063,-2.04152 0,-0.0467 -0.77906,-1.36971 -1.73125,-2.93998 -0.95218,-1.57026 -1.77254,-2.97537 -1.82303,-3.12246 -0.10309,-0.30032 -0.69715,-0.38899 -2.18491,-0.32614 l -1.0128,0.0428 v 5.24404 c 0,3.94253 0.0838,5.27785 0.3376,5.38027 0.58568,0.23633 8.53636,0.18984 8.68508,-0.0508 z m 10.9632,-0.0271 c 0,-0.22279 -2.03755,-3.71724 -5.23565,-8.9793 l -0.93526,-1.53885 -3.96298,-0.0816 c -2.17964,-0.0449 -4.02247,0.0151 -4.0952,0.13325 -0.0727,0.11818 0.34927,1.0297 0.93776,2.02559 0.5885,0.9959 1.89217,3.2084 2.89706,4.91665 1.00489,1.70825 2.01565,3.25783 2.24614,3.44351 0.50922,0.41022 8.14813,0.48595 8.14813,0.0808 z m 10.66193,-0.003 c 0.0884,-0.14302 -0.14751,-0.74828 -0.52422,-1.34503 -0.37671,-0.59675 -0.68493,-1.1236 -0.68493,-1.17077 0,-0.0472 -1.01217,-1.78148 -2.24926,-3.854 -1.30961,-2.19399 -2.52253,-3.91348 -2.90336,-4.11594 -0.67412,-0.35835 -7.3122,-0.37711 -7.66713,-0.0217 -0.19733,0.19761 -0.002,0.557 3.36129,6.17609 1.378,2.30242 2.64184,4.27552 2.80852,4.38465 0.4551,0.29796 7.67225,0.24898 7.85909,-0.0534 z m 10.94443,-0.0562 c 0,-0.17395 -1.34914,-2.60466 -2.9981,-5.40159 l -2.9981,-5.08533 h -3.46172 c -1.90395,0 -3.62357,-0.0595 -3.8214,-0.13221 -0.19783,-0.0727 -0.52097,-0.0294 -0.71809,0.0963 -0.27807,0.17731 -0.10252,0.64578 0.78325,2.09029 0.62789,1.02396 1.38085,2.28713 1.67323,2.80704 1.25316,2.22829 3.32415,5.55214 3.57334,5.73505 0.47705,0.35017 7.96759,0.24716 7.96759,-0.10956 z m 10.89382,0.1137 c 0.0674,-0.11141 -1.27404,-2.54213 -2.98095,-5.40159 l -3.10348,-5.19903 h -4.19127 -4.19128 l 0.39158,0.60768 c 0.46895,0.72774 4.79856,8.05859 5.26345,8.912 0.63681,1.16901 1.08065,1.2835 4.97587,1.2835 2.04246,0 3.7687,-0.0911 3.83608,-0.20256 z m 5.5191,-5.22908 0.0731,-5.29659 -1.25864,-0.17252 c -0.69225,-0.0949 -2.70011,-0.17251 -4.4619,-0.17251 -2.57323,0 -3.20325,0.0747 -3.20325,0.38001 0,0.33997 5.31708,9.5038 6.01615,10.36865 0.17783,0.21999 0.74498,0.32061 1.52242,0.27009 l 1.23901,-0.0805 z"
         id="path17" />
    </g>
  </g>
</svg>
